<svg width="420" height="160" viewBox="0 0 420 160" fill="none" xmlns="http://www.w3.org/2000/svg" role="img" aria-labelledby="lydiaTitle lydiaDesc">
  <title id="lydiaTitle">Logo Lydia</title>
  <desc id="lydiaDesc">Lua crescente roxa com o texto Lydia em branco.</desc>
  <defs>
    <linearGradient id="lydiaMoon" x1="0" y1="0" x2="1" y2="1">
      <stop offset="0%" stop-color="#7A5CFF" />
      <stop offset="100%" stop-color="#4B34FF" />
    </linearGradient>
    <linearGradient id="lydiaText" x1="0" y1="0" x2="1" y2="0">
      <stop offset="0%" stop-color="#F5F6FF" />
      <stop offset="100%" stop-color="#D9DDFC" />
    </linearGradient>
  </defs>
  <rect width="420" height="160" rx="24" fill="none" />
  <path
    d="M110 40c-18 9-30 27-30 48 0 31 25 56 56 56 10 0 19-2 27-7-9 19-28 31-50 31-31 0-56-25-56-56 0-28 20-50 45-56 2-1 5-1 8-1z"
    fill="url(#lydiaMoon)"
  />
  <path
    d="M173 105V55h16v50h26v14h-42zm55 0V55h16v50h-16zm32 0V55h26c7 0 13 2 18 6 5 4 8 10 8 19 0 9-3 15-8 19-5 4-11 6-18 6h-26zm16-14h10c4 0 7-1 9-3 2-2 3-5 3-8 0-4-1-6-3-8-2-2-5-3-9-3h-10v22zm63 14V55h16v50h-16zm32 0 22-50h16l22 50h-17l-4-10h-18l-4 10h-17zm27-24h10l-5-13-5 13z"
    fill="url(#lydiaText)"
  />
</svg>
